<svg xmlns="http://www.w3.org/2000/svg" viewBox="0 0 1200 900">
<defs>
<filter id="glow" x="-20%" y="-20%" width="140%" height="140%">
<feGaussianBlur stdDeviation="3" result="blur"/>
<feMerge><feMergeNode in="blur"/><feMergeNode in="SourceGraphic"/></feMerge>
</filter>
<filter id="shadow" x="-10%" y="-10%" width="130%" height="130%">
<feDropShadow dx="0" dy="2" stdDeviation="4" flood-color="#d4a574" flood-opacity="0.08"/>
</filter>
<radialGradient id="ambient" cx="50%" cy="45%" r="45%">
<stop offset="0%" stop-color="#d4a574" stop-opacity="0.03"/>
<stop offset="100%" stop-color="#d4a574" stop-opacity="0"/>
</radialGradient>
<marker id="arr-gold" markerWidth="10" markerHeight="7" refX="9" refY="3.5" orient="auto"><polygon points="0 0,10 3.5,0 7" fill="#d4a574"/></marker>
<marker id="arr-mint" markerWidth="10" markerHeight="7" refX="9" refY="3.5" orient="auto"><polygon points="0 0,10 3.5,0 7" fill="#6ee7b7"/></marker>
<marker id="arr-orange" markerWidth="8" markerHeight="6" refX="7" refY="3" orient="auto"><polygon points="0 0,8 3,0 6" fill="#fdba74"/></marker>
<marker id="arr-violet" markerWidth="10" markerHeight="7" refX="9" refY="3.5" orient="auto"><polygon points="0 0,10 3.5,0 7" fill="#a78bfa"/></marker>
<marker id="arr-muted" markerWidth="8" markerHeight="6" refX="7" refY="3" orient="auto"><polygon points="0 0,8 3,0 6" fill="#a39787"/></marker>
</defs>
<style>
text{font-family:-apple-system,"Helvetica Neue",Arial,"PingFang SC",sans-serif}
.ttl{font-family:Georgia,"Times New Roman",serif;font-size:22px;font-weight:700;fill:#f5f0eb}
.sub{font-family:Georgia,"Times New Roman",serif;font-size:12px;fill:#c9a96e;opacity:0.7}
.nm{font-size:12.5px;font-weight:600}
.sm{font-size:9.5px;fill:#a39787}
.xs{font-size:8.5px;fill:#6b5f53}
.al{font-size:9px;fill:#8c7e72}
.fn{font-family:"Cascadia Code","SF Mono","Courier New",monospace;font-size:9px;fill:#a39787}
</style>
<rect width="1200" height="900" fill="#0a0a0a"/>
<rect width="1200" height="900" fill="url(#ambient)"/>
<text x="600" y="38" text-anchor="middle" class="ttl">KnowledgeOS · 系统架构全景图</text>
<text x="600" y="56" text-anchor="middle" class="sub">SYSTEM ARCHITECTURE OVERVIEW — ENTERPRISE KNOWLEDGE OS</text>
<rect x="40" y="75" width="1120" height="110" rx="8" fill="none" stroke="#5a9e6f" stroke-width="0.5" stroke-dasharray="6,4" opacity="0.3"/>
<text x="52" y="89" class="sub" fill="#5a9e6f">CLIENT · 桌面客户端 + 浏览器扩展</text>
<rect x="40" y="190" width="1120" height="60" rx="8" fill="none" stroke="#a78bfa" stroke-width="0.5" stroke-dasharray="6,4" opacity="0.3"/>
<text x="52" y="204" class="sub" fill="#a78bfa">GATEWAY · API 网关 · 认证 · SSE</text>
<rect x="40" y="255" width="1120" height="60" rx="8" fill="none" stroke="#fbbf24" stroke-width="0.5" stroke-dasharray="6,4" opacity="0.3"/>
<text x="52" y="269" class="sub" fill="#fbbf24">TASK QUEUE · 异步任务调度</text>
<rect x="40" y="320" width="1120" height="90" rx="8" fill="none" stroke="#38bdf8" stroke-width="0.5" stroke-dasharray="6,4" opacity="0.3"/>
<text x="52" y="334" class="sub" fill="#38bdf8">STORAGE · 持久化 + 向量存储</text>
<rect x="40" y="415" width="1120" height="130" rx="8" fill="none" stroke="#f87171" stroke-width="0.5" stroke-dasharray="6,4" opacity="0.3"/>
<text x="52" y="429" class="sub" fill="#f87171">AI ENGINE · 智能处理引擎</text>
<rect x="40" y="550" width="1120" height="90" rx="8" fill="none" stroke="#94a3b8" stroke-width="0.5" stroke-dasharray="6,4" opacity="0.3"/>
<text x="52" y="564" class="sub" fill="#94a3b8">EXTERNAL · 外部服务集成</text>
<rect x="40" y="645" width="1120" height="80" rx="8" fill="none" stroke="#fbbf24" stroke-width="0.5" stroke-dasharray="6,4" opacity="0.3"/>
<text x="52" y="659" class="sub" fill="#fbbf24">ADMIN · 管理后台</text>
<rect x="80" y="95" width="200" height="52" rx="6" fill="none" stroke="#5a9e6f" stroke-width="1.5" filter="url(#shadow)"/>
<rect x="80" y="95" width="200" height="52" rx="6" fill="#111111" opacity="0.95"/>
<text x="180" y="113" text-anchor="middle" class="nm" fill="#5a9e6f">🖥 Tauri v2 Desktop</text>
<text x="180" y="129" text-anchor="middle" class="sm">macOS dmg · Windows exe</text>
<text x="180" y="141" text-anchor="middle" class="xs">React 19 + Vite 8 + TypeScript</text>
<rect x="330" y="95" width="180" height="52" rx="6" fill="none" stroke="#5a9e6f" stroke-width="1.5" filter="url(#shadow)"/>
<rect x="330" y="95" width="180" height="52" rx="6" fill="#111111" opacity="0.95"/>
<text x="420" y="113" text-anchor="middle" class="nm" fill="#5a9e6f">📊 Graph Viz</text>
<text x="420" y="129" text-anchor="middle" class="sm">Sigma.js · Graphology</text>
<text x="420" y="141" text-anchor="middle" class="xs">力导引布局 · WebGL 渲染</text>
<rect x="560" y="95" width="180" height="52" rx="6" fill="none" stroke="#5a9e6f" stroke-width="1.5" filter="url(#shadow)"/>
<rect x="560" y="95" width="180" height="52" rx="6" fill="#111111" opacity="0.95"/>
<text x="650" y="113" text-anchor="middle" class="nm" fill="#5a9e6f">📝 Wiki Browser</text>
<text x="650" y="129" text-anchor="middle" class="sm">Milkdown · Obsidian 兼容</text>
<text x="650" y="141" text-anchor="middle" class="xs">YAML frontmatter · [[wikilink]]</text>
<rect x="790" y="95" width="160" height="52" rx="6" fill="none" stroke="#5a9e6f" stroke-width="1.5" filter="url(#shadow)"/>
<rect x="790" y="95" width="160" height="52" rx="6" fill="#111111" opacity="0.95"/>
<text x="870" y="113" text-anchor="middle" class="nm" fill="#5a9e6f">🔗 Web Clipper</text>
<text x="870" y="129" text-anchor="middle" class="sm">Chrome Extension</text>
<text x="870" y="141" text-anchor="middle" class="xs">Readability · Turndown</text>
<rect x="1000" y="95" width="140" height="52" rx="6" fill="none" stroke="#5a9e6f" stroke-width="1.5" filter="url(#shadow)"/>
<rect x="1000" y="95" width="140" height="52" rx="6" fill="#111111" opacity="0.95"/>
<text x="1070" y="113" text-anchor="middle" class="nm" fill="#5a9e6f">📡 Clip Server</text>
<text x="1070" y="129" text-anchor="middle" class="sm">Rust · :19827</text>
<text x="1070" y="141" text-anchor="middle" class="xs">Markdown 转换</text>
<rect x="120" y="210" width="280" height="32" rx="6" fill="none" stroke="#a78bfa" stroke-width="1.5" filter="url(#shadow)"/>
<rect x="120" y="210" width="280" height="32" rx="6" fill="#111111" opacity="0.95"/>
<text x="260" y="230" text-anchor="middle" class="nm" fill="#a78bfa">🌐 FastAPI REST · :8080 → :8000</text>
<rect x="460" y="210" width="240" height="32" rx="6" fill="none" stroke="#a78bfa" stroke-width="1.5" filter="url(#shadow)"/>
<rect x="460" y="210" width="240" height="32" rx="6" fill="#111111" opacity="0.95"/>
<text x="580" y="230" text-anchor="middle" class="nm" fill="#a78bfa">🔐 JWT Auth · 3-Level RBAC</text>
<rect x="760" y="210" width="300" height="32" rx="6" fill="none" stroke="#a78bfa" stroke-width="1.5" filter="url(#shadow)"/>
<rect x="760" y="210" width="300" height="32" rx="6" fill="#111111" opacity="0.95"/>
<text x="910" y="230" text-anchor="middle" class="nm" fill="#a78bfa">📡 SSE Streaming · Redis pub/sub</text>
<rect x="200" y="275" width="260" height="32" rx="6" fill="none" stroke="#fbbf24" stroke-width="1.5" filter="url(#shadow)"/>
<rect x="200" y="275" width="260" height="32" rx="6" fill="#111111" opacity="0.95"/>
<text x="330" y="295" text-anchor="middle" class="nm" fill="#fbbf24">⚡ Celery Worker · 异步任务</text>
<rect x="540" y="275" width="260" height="32" rx="6" fill="none" stroke="#fbbf24" stroke-width="1.5" filter="url(#shadow)"/>
<rect x="540" y="275" width="260" height="32" rx="6" fill="#111111" opacity="0.95"/>
<text x="670" y="295" text-anchor="middle" class="nm" fill="#fbbf24">🔴 Redis · Broker + Cache + Log</text>
<rect x="120" y="345" width="260" height="55" rx="6" fill="none" stroke="#38bdf8" stroke-width="1.5" filter="url(#shadow)"/>
<rect x="120" y="345" width="260" height="55" rx="6" fill="#111111" opacity="0.95"/>
<text x="250" y="363" text-anchor="middle" class="nm" fill="#38bdf8">🗄 PostgreSQL</text>
<text x="250" y="379" text-anchor="middle" class="sm">Users · Projects · Concepts · Cookies</text>
<text x="250" y="392" text-anchor="middle" class="xs">SQLAlchemy · 手动迁移脚本</text>
<rect x="450" y="345" width="250" height="55" rx="6" fill="none" stroke="#38bdf8" stroke-width="1.5" filter="url(#shadow)"/>
<rect x="450" y="345" width="250" height="55" rx="6" fill="#111111" opacity="0.95"/>
<text x="575" y="363" text-anchor="middle" class="nm" fill="#38bdf8">🧬 LanceDB Vector</text>
<text x="575" y="379" text-anchor="middle" class="sm">Document Embeddings · Semantic Search</text>
<text x="575" y="392" text-anchor="middle" class="xs">all-MiniLM-L6-v2 · Serverless</text>
<rect x="770" y="345" width="280" height="55" rx="6" fill="none" stroke="#38bdf8" stroke-width="1.5" filter="url(#shadow)"/>
<rect x="770" y="345" width="280" height="55" rx="6" fill="#111111" opacity="0.95"/>
<text x="910" y="363" text-anchor="middle" class="nm" fill="#38bdf8">📁 本地文件系统</text>
<text x="910" y="379" text-anchor="middle" class="sm">Raw Documents · Wiki .md · Packages</text>
<text x="910" y="392" text-anchor="middle" class="xs">共享项目压缩包分发</text>
<rect x="70" y="440" width="200" height="55" rx="6" fill="none" stroke="#f87171" stroke-width="1.5" filter="url(#shadow)"/>
<rect x="70" y="440" width="200" height="55" rx="6" fill="#111111" opacity="0.95"/>
<text x="170" y="458" text-anchor="middle" class="nm" fill="#f87171">🔀 LiteLLM Gateway</text>
<text x="170" y="474" text-anchor="middle" class="sm">DeepSeek · Gemini · Claude</text>
<text x="170" y="487" text-anchor="middle" class="xs">Ollama 本地 · 成本路由</text>
<rect x="310" y="440" width="220" height="55" rx="6" fill="none" stroke="#f87171" stroke-width="2" filter="url(#shadow)"/>
<rect x="310" y="440" width="220" height="55" rx="6" fill="#111111" opacity="0.95"/>
<text x="420" y="458" text-anchor="middle" class="nm" fill="#f87171">🧠 Wiki Engine (Core)</text>
<text x="420" y="474" text-anchor="middle" class="sm">2-Step Chain-of-Thought</text>
<text x="420" y="487" text-anchor="middle" class="xs">Analyze → Generate → Audit</text>
<rect x="570" y="440" width="220" height="55" rx="6" fill="none" stroke="#f87171" stroke-width="1.5" filter="url(#shadow)"/>
<rect x="570" y="440" width="220" height="55" rx="6" fill="#111111" opacity="0.95"/>
<text x="680" y="458" text-anchor="middle" class="nm" fill="#f87171">🌳 Graphify AST Engine</text>
<text x="680" y="474" text-anchor="middle" class="sm">Tree-sitter · 25+ Languages</text>
<text x="680" y="487" text-anchor="middle" class="xs">零 Token 消耗 · 零幻觉</text>
<rect x="830" y="440" width="150" height="55" rx="6" fill="none" stroke="#f87171" stroke-width="1.5" filter="url(#shadow)"/>
<rect x="830" y="440" width="150" height="55" rx="6" fill="#111111" opacity="0.95"/>
<text x="905" y="458" text-anchor="middle" class="nm" fill="#f87171">🎤 Whisper</text>
<text x="905" y="474" text-anchor="middle" class="sm">Faster-Whisper</text>
<text x="905" y="487" text-anchor="middle" class="xs">Audio/Video → Text</text>
<rect x="1010" y="440" width="130" height="55" rx="6" fill="none" stroke="#f87171" stroke-width="1.5" filter="url(#shadow)"/>
<rect x="1010" y="440" width="130" height="55" rx="6" fill="#111111" opacity="0.95"/>
<text x="1075" y="458" text-anchor="middle" class="nm" fill="#f87171">🔍 Deep Research</text>
<text x="1075" y="474" text-anchor="middle" class="sm">Auto Web Crawl</text>
<text x="1075" y="487" text-anchor="middle" class="xs">Report → Ingest</text>
<text x="420" y="512" text-anchor="middle" class="xs">— 知识提取核心管线 —</text>
<rect x="70" y="575" width="200" height="55" rx="6" fill="none" stroke="#94a3b8" stroke-width="1.5" stroke-dasharray="4,3" filter="url(#shadow)"/>
<rect x="70" y="575" width="200" height="55" rx="6" fill="#111111" opacity="0.9"/>
<text x="170" y="593" text-anchor="middle" class="nm" fill="#94a3b8">🌐 Jina Reader API</text>
<text x="170" y="609" text-anchor="middle" class="sm">Cloud Playwright · JS Render</text>
<text x="170" y="622" text-anchor="middle" class="xs">500 RPM Free · Cookie 注入</text>
<rect x="310" y="575" width="200" height="55" rx="6" fill="none" stroke="#94a3b8" stroke-width="1.5" stroke-dasharray="4,3" filter="url(#shadow)"/>
<rect x="310" y="575" width="200" height="55" rx="6" fill="#111111" opacity="0.9"/>
<text x="410" y="593" text-anchor="middle" class="nm" fill="#94a3b8">🔎 Tavily API</text>
<text x="410" y="609" text-anchor="middle" class="sm">Search + Extract (Paid)</text>
<text x="410" y="622" text-anchor="middle" class="xs">Advanced JS Rendering</text>
<rect x="550" y="575" width="200" height="55" rx="6" fill="none" stroke="#94a3b8" stroke-width="1.5" stroke-dasharray="4,3" filter="url(#shadow)"/>
<rect x="550" y="575" width="200" height="55" rx="6" fill="#111111" opacity="0.9"/>
<text x="650" y="593" text-anchor="middle" class="nm" fill="#94a3b8">📥 yt-dlp</text>
<text x="650" y="609" text-anchor="middle" class="sm">YouTube · Bilibili · 多平台</text>
<text x="650" y="622" text-anchor="middle" class="xs">Cookie 注入 · Audio 下载</text>
<rect x="790" y="575" width="200" height="55" rx="6" fill="none" stroke="#94a3b8" stroke-width="1.5" stroke-dasharray="4,3" filter="url(#shadow)"/>
<rect x="790" y="575" width="200" height="55" rx="6" fill="#111111" opacity="0.9"/>
<text x="890" y="593" text-anchor="middle" class="nm" fill="#94a3b8">📄 trafilatura</text>
<text x="890" y="609" text-anchor="middle" class="sm">Static HTML Extraction</text>
<text x="890" y="622" text-anchor="middle" class="xs">Level 1 Fallback</text>
<rect x="120" y="670" width="200" height="45" rx="6" fill="none" stroke="#fbbf24" stroke-width="1.5" filter="url(#shadow)"/>
<rect x="120" y="670" width="200" height="45" rx="6" fill="#111111" opacity="0.95"/>
<text x="220" y="687" text-anchor="middle" class="nm" fill="#fbbf24">⚙ Model Config</text>
<text x="220" y="703" text-anchor="middle" class="sm">models_config.yaml · LiteLLM</text>
<rect x="370" y="670" width="200" height="45" rx="6" fill="none" stroke="#fbbf24" stroke-width="1.5" filter="url(#shadow)"/>
<rect x="370" y="670" width="200" height="45" rx="6" fill="#111111" opacity="0.95"/>
<text x="470" y="687" text-anchor="middle" class="nm" fill="#fbbf24">🍪 Cookie Mgmt</text>
<text x="470" y="703" text-anchor="middle" class="sm">Platform Cookies · Domain</text>
<rect x="620" y="670" width="200" height="45" rx="6" fill="none" stroke="#fbbf24" stroke-width="1.5" filter="url(#shadow)"/>
<rect x="620" y="670" width="200" height="45" rx="6" fill="#111111" opacity="0.95"/>
<text x="720" y="687" text-anchor="middle" class="nm" fill="#fbbf24">📦 Shared Projects</text>
<text x="720" y="703" text-anchor="middle" class="sm">Package · Tenant · Version</text>
<rect x="870" y="670" width="200" height="45" rx="6" fill="none" stroke="#fbbf24" stroke-width="1.5" filter="url(#shadow)"/>
<rect x="870" y="670" width="200" height="45" rx="6" fill="#111111" opacity="0.95"/>
<text x="970" y="687" text-anchor="middle" class="nm" fill="#fbbf24">👥 Tenant Mgmt</text>
<text x="970" y="703" text-anchor="middle" class="sm">Users · Roles · Permissions</text>
<line x1="180" y1="147" x2="180" y2="208" stroke="#d4a574" stroke-width="1.2" opacity="0.4" marker-end="url(#arr-gold)"/>
<line x1="420" y1="147" x2="420" y2="208" stroke="#d4a574" stroke-width="1.2" opacity="0.4" marker-end="url(#arr-gold)"/>
<line x1="650" y1="147" x2="650" y2="208" stroke="#d4a574" stroke-width="1.2" opacity="0.4" marker-end="url(#arr-gold)"/>
<line x1="870" y1="147" x2="870" y2="208" stroke="#d4a574" stroke-width="1.2" opacity="0.4" marker-end="url(#arr-gold)"/>
<line x1="400" y1="242" x2="400" y2="273" stroke="#d4a574" stroke-width="1.2" opacity="0.4" marker-end="url(#arr-gold)"/>
<line x1="500" y1="307" x2="500" y2="343" stroke="#d4a574" stroke-width="1.2" opacity="0.4" marker-end="url(#arr-gold)"/>
<line x1="350" y1="400" x2="350" y2="438" stroke="#d4a574" stroke-width="1.2" opacity="0.4" marker-end="url(#arr-gold)"/>
<line x1="680" y1="400" x2="680" y2="438" stroke="#d4a574" stroke-width="1.2" opacity="0.4" marker-end="url(#arr-gold)"/>
<line x1="300" y1="495" x2="300" y2="573" stroke="#a39787" stroke-width="1" stroke-dasharray="4,3" opacity="0.35" marker-end="url(#arr-muted)"/>
<rect x="40" y="740" width="1120" height="55" rx="6" fill="none" stroke="#d4a574" stroke-width="0.5" opacity="0.25"/>
<text x="55" y="756" class="sub">图例 LEGEND</text>
<line x1="60" y1="772" x2="95" y2="772" stroke="#d4a574" stroke-width="1.5" stroke-dasharray="—"/>
<text x="102" y="776" class="xs" fill="#8c7e72">Primary Flow</text>
<line x1="200" y1="772" x2="235" y2="772" stroke="#6ee7b7" stroke-width="1.5" stroke-dasharray="-"/>
<text x="242" y="776" class="xs" fill="#8c7e72">Data Flow</text>
<line x1="340" y1="772" x2="375" y2="772" stroke="#fdba74" stroke-width="1.5" stroke-dasharray="-"/>
<text x="382" y="776" class="xs" fill="#8c7e72">Control/Trigger</text>
<line x1="490" y1="772" x2="525" y2="772" stroke="#a78bfa" stroke-width="1.5" stroke-dasharray="---"/>
<text x="532" y="776" class="xs" fill="#8c7e72">Dependency</text>
<line x1="630" y1="772" x2="665" y2="772" stroke="#a39787" stroke-width="1.5" stroke-dasharray="···"/>
<text x="672" y="776" class="xs" fill="#8c7e72">External Call</text>
<line x1="770" y1="772" x2="805" y2="772" stroke="#5a9e6f" stroke-width="1.5" stroke-dasharray="■"/>
<text x="812" y="776" class="xs" fill="#8c7e72">Client/UI</text>
<line x1="870" y1="772" x2="905" y2="772" stroke="#38bdf8" stroke-width="1.5" stroke-dasharray="■"/>
<text x="912" y="776" class="xs" fill="#8c7e72">Storage</text>
<line x1="970" y1="772" x2="1005" y2="772" stroke="#f87171" stroke-width="1.5" stroke-dasharray="■"/>
<text x="1012" y="776" class="xs" fill="#8c7e72">AI Engine</text>
<text x="600" y="820" text-anchor="middle" class="xs">KnowledgeOS v0.5.6 · Enterprise Knowledge Operating System · Powered by Claude Code</text>
<text x="600" y="836" text-anchor="middle" class="xs">Python 3.12 + FastAPI + Celery + PostgreSQL + LanceDB + Redis 丨 Tauri v2 + React 19 + Vite 8 + Tailwind 4</text>
<rect x="420" y="860" width="360" height="28" rx="6" fill="none" stroke="#fbbf24" stroke-width="0.8" opacity="0.3"/>
<text x="600" y="879" text-anchor="middle" class="xs" fill="#c9a96e">🐳 Docker Compose · kos_api · kos_celery_worker · kos_postgres · kos_redis</text>
</svg>