<svg xmlns="http://www.w3.org/2000/svg" viewBox="0 0 1200 620">
<defs>
<filter id="glow" x="-20%" y="-20%" width="140%" height="140%"><feGaussianBlur stdDeviation="2" result="blur"/><feMerge><feMergeNode in="blur"/><feMergeNode in="SourceGraphic"/></feMerge></filter>
<filter id="shadow" x="-10%" y="-10%" width="130%" height="130%"><feDropShadow dx="0" dy="2" stdDeviation="4" flood-color="#d4a574" flood-opacity="0.05"/></filter>
<radialGradient id="ambient" cx="50%" cy="50%" r="45%"><stop offset="0%" stop-color="#d4a574" stop-opacity="0.03"/><stop offset="100%" stop-color="#d4a574" stop-opacity="0"/></radialGradient>
</defs>
<style>
text{font-family:-apple-system,"Helvetica Neue",Arial,"PingFang SC",sans-serif}
.ttl{font-family:Georgia,"Times New Roman",serif;font-size:22px;font-weight:700;fill:#f5f0eb}
.sub{font-family:Georgia,"Times New Roman",serif;font-size:11px;fill:#c9a96e;opacity:0.7}
.nm{font-size:13px;font-weight:600}
.sm{font-size:10.5px;fill:#a39787}
.xs{font-size:9px;fill:#6b5f53}
.fn{font-family:"Cascadia Code","SF Mono","Courier New",monospace;font-size:9.5px;fill:#a39787}
</style>
<rect width="1200" height="620" fill="#0a0a0a"/>
<rect width="1200" height="620" fill="url(#ambient)"/>
<text x="600" y="38" text-anchor="middle" class="ttl">KnowledgeOS · 技术栈全景</text>
<text x="600" y="56" text-anchor="middle" class="sub">FULL TECH STACK — EVERY LAYER, EVERY TECHNOLOGY</text>
<rect x="40" y="85" width="1120" height="90" rx="10" fill="none" stroke="#5a9e6f" stroke-width="0.5" stroke-dasharray="6,4" opacity="0.25"/>
<text x="56" y="101" class="sub" fill="#5a9e6f">FRONTEND</text>
<rect x="52.0" y="109" width="148" height="54" rx="7" fill="none" stroke="#5a9e6f" stroke-width="1.2" filter="url(#shadow)"/>
<rect x="52.0" y="109" width="148" height="54" rx="7" fill="#111111" opacity="0.9"/>
<text x="126.0" y="127" text-anchor="middle" class="nm" fill="#5a9e6f">Tauri v2</text>
<text x="126.0" y="143" text-anchor="middle" class="sm">Desktop Framework · macOS</text>
<text x="126.0" y="156" text-anchor="middle" class="xs">dmg + Windows exe</text>
<rect x="210.0" y="109" width="148" height="54" rx="7" fill="none" stroke="#5a9e6f" stroke-width="1.2" filter="url(#shadow)"/>
<rect x="210.0" y="109" width="148" height="54" rx="7" fill="#111111" opacity="0.9"/>
<text x="284.0" y="127" text-anchor="middle" class="nm" fill="#5a9e6f">React 19</text>
<text x="284.0" y="143" text-anchor="middle" class="sm">UI Library · Concurrent</text>
<text x="284.0" y="156" text-anchor="middle" class="xs">Rendering</text>
<rect x="368.0" y="109" width="148" height="54" rx="7" fill="none" stroke="#5a9e6f" stroke-width="1.2" filter="url(#shadow)"/>
<rect x="368.0" y="109" width="148" height="54" rx="7" fill="#111111" opacity="0.9"/>
<text x="442.0" y="127" text-anchor="middle" class="nm" fill="#5a9e6f">Vite 8</text>
<text x="442.0" y="143" text-anchor="middle" class="sm">Build Tool · HMR ·</text>
<text x="442.0" y="156" text-anchor="middle" class="xs">Lightning Fast</text>
<rect x="526.0" y="109" width="148" height="54" rx="7" fill="none" stroke="#5a9e6f" stroke-width="1.2" filter="url(#shadow)"/>
<rect x="526.0" y="109" width="148" height="54" rx="7" fill="#111111" opacity="0.9"/>
<text x="600.0" y="127" text-anchor="middle" class="nm" fill="#5a9e6f">TypeScript</text>
<text x="600.0" y="145" text-anchor="middle" class="sm">Type Safety · Strict Mode</text>
<rect x="684.0" y="109" width="148" height="54" rx="7" fill="none" stroke="#5a9e6f" stroke-width="1.2" filter="url(#shadow)"/>
<rect x="684.0" y="109" width="148" height="54" rx="7" fill="#111111" opacity="0.9"/>
<text x="758.0" y="127" text-anchor="middle" class="nm" fill="#5a9e6f">Tailwind 4</text>
<text x="758.0" y="143" text-anchor="middle" class="sm">Utility-First CSS · Design</text>
<text x="758.0" y="156" text-anchor="middle" class="xs">System</text>
<rect x="842.0" y="109" width="148" height="54" rx="7" fill="none" stroke="#5a9e6f" stroke-width="1.2" filter="url(#shadow)"/>
<rect x="842.0" y="109" width="148" height="54" rx="7" fill="#111111" opacity="0.9"/>
<text x="916.0" y="127" text-anchor="middle" class="nm" fill="#5a9e6f">Sigma.js + Graphology</text>
<text x="916.0" y="143" text-anchor="middle" class="sm">Graph Viz · WebGL ·</text>
<text x="916.0" y="156" text-anchor="middle" class="xs">ForceAtlas2 · Louvain</text>
<rect x="1000.0" y="109" width="148" height="54" rx="7" fill="none" stroke="#5a9e6f" stroke-width="1.2" filter="url(#shadow)"/>
<rect x="1000.0" y="109" width="148" height="54" rx="7" fill="#111111" opacity="0.9"/>
<text x="1074.0" y="127" text-anchor="middle" class="nm" fill="#5a9e6f">Milkdown</text>
<text x="1074.0" y="143" text-anchor="middle" class="sm">Markdown Editor · WYSIWYG ·</text>
<text x="1074.0" y="156" text-anchor="middle" class="xs">Plugin System</text>
<rect x="40" y="195" width="1120" height="85" rx="10" fill="none" stroke="#a78bfa" stroke-width="0.5" stroke-dasharray="6,4" opacity="0.25"/>
<text x="56" y="211" class="sub" fill="#a78bfa">BACKEND</text>
<rect x="131.0" y="219" width="148" height="54" rx="7" fill="none" stroke="#a78bfa" stroke-width="1.2" filter="url(#shadow)"/>
<rect x="131.0" y="219" width="148" height="54" rx="7" fill="#111111" opacity="0.9"/>
<text x="205.0" y="237" text-anchor="middle" class="nm" fill="#a78bfa">Python 3.12</text>
<text x="205.0" y="255" text-anchor="middle" class="sm">Core Language · Type Hints</text>
<rect x="289.0" y="219" width="148" height="54" rx="7" fill="none" stroke="#a78bfa" stroke-width="1.2" filter="url(#shadow)"/>
<rect x="289.0" y="219" width="148" height="54" rx="7" fill="#111111" opacity="0.9"/>
<text x="363.0" y="237" text-anchor="middle" class="nm" fill="#a78bfa">FastAPI</text>
<text x="363.0" y="255" text-anchor="middle" class="sm">REST API · Auto Docs · Async</text>
<rect x="447.0" y="219" width="148" height="54" rx="7" fill="none" stroke="#a78bfa" stroke-width="1.2" filter="url(#shadow)"/>
<rect x="447.0" y="219" width="148" height="54" rx="7" fill="#111111" opacity="0.9"/>
<text x="521.0" y="237" text-anchor="middle" class="nm" fill="#a78bfa">Celery</text>
<text x="521.0" y="253" text-anchor="middle" class="sm">Async Task Queue ·</text>
<text x="521.0" y="266" text-anchor="middle" class="xs">Distributed Workers</text>
<rect x="605.0" y="219" width="148" height="54" rx="7" fill="none" stroke="#a78bfa" stroke-width="1.2" filter="url(#shadow)"/>
<rect x="605.0" y="219" width="148" height="54" rx="7" fill="#111111" opacity="0.9"/>
<text x="679.0" y="237" text-anchor="middle" class="nm" fill="#a78bfa">SQLAlchemy</text>
<text x="679.0" y="255" text-anchor="middle" class="sm">ORM · Manual Migrations</text>
<rect x="763.0" y="219" width="148" height="54" rx="7" fill="none" stroke="#a78bfa" stroke-width="1.2" filter="url(#shadow)"/>
<rect x="763.0" y="219" width="148" height="54" rx="7" fill="#111111" opacity="0.9"/>
<text x="837.0" y="237" text-anchor="middle" class="nm" fill="#a78bfa">LiteLLM</text>
<text x="837.0" y="253" text-anchor="middle" class="sm">Unified LLM Gateway ·</text>
<text x="837.0" y="266" text-anchor="middle" class="xs">Multi-Provider</text>
<rect x="921.0" y="219" width="148" height="54" rx="7" fill="none" stroke="#a78bfa" stroke-width="1.2" filter="url(#shadow)"/>
<rect x="921.0" y="219" width="148" height="54" rx="7" fill="#111111" opacity="0.9"/>
<text x="995.0" y="237" text-anchor="middle" class="nm" fill="#a78bfa">JWT + RBAC</text>
<text x="995.0" y="253" text-anchor="middle" class="sm">Auth · Tenant/User/Project</text>
<text x="995.0" y="266" text-anchor="middle" class="xs">3-Level</text>
<rect x="40" y="305" width="1120" height="85" rx="10" fill="none" stroke="#f87171" stroke-width="0.5" stroke-dasharray="6,4" opacity="0.25"/>
<text x="56" y="321" class="sub" fill="#f87171">AI / ML</text>
<rect x="210.0" y="329" width="148" height="54" rx="7" fill="none" stroke="#f87171" stroke-width="1.2" filter="url(#shadow)"/>
<rect x="210.0" y="329" width="148" height="54" rx="7" fill="#111111" opacity="0.9"/>
<text x="284.0" y="347" text-anchor="middle" class="nm" fill="#f87171">2-Step CoT</text>
<text x="284.0" y="363" text-anchor="middle" class="sm">Wiki Engine · Analyze →</text>
<text x="284.0" y="376" text-anchor="middle" class="xs">Generate</text>
<rect x="368.0" y="329" width="148" height="54" rx="7" fill="none" stroke="#f87171" stroke-width="1.2" filter="url(#shadow)"/>
<rect x="368.0" y="329" width="148" height="54" rx="7" fill="#111111" opacity="0.9"/>
<text x="442.0" y="347" text-anchor="middle" class="nm" fill="#f87171">Tree-sitter AST</text>
<text x="442.0" y="363" text-anchor="middle" class="sm">25+ Languages · 0 Token ·</text>
<text x="442.0" y="376" text-anchor="middle" class="xs">Zero Hallucination</text>
<rect x="526.0" y="329" width="148" height="54" rx="7" fill="none" stroke="#f87171" stroke-width="1.2" filter="url(#shadow)"/>
<rect x="526.0" y="329" width="148" height="54" rx="7" fill="#111111" opacity="0.9"/>
<text x="600.0" y="347" text-anchor="middle" class="nm" fill="#f87171">Faster-Whisper</text>
<text x="600.0" y="363" text-anchor="middle" class="sm">Audio/Video Transcription ·</text>
<text x="600.0" y="376" text-anchor="middle" class="xs">yt-dlp</text>
<rect x="684.0" y="329" width="148" height="54" rx="7" fill="none" stroke="#f87171" stroke-width="1.2" filter="url(#shadow)"/>
<rect x="684.0" y="329" width="148" height="54" rx="7" fill="#111111" opacity="0.9"/>
<text x="758.0" y="347" text-anchor="middle" class="nm" fill="#f87171">LanceDB</text>
<text x="758.0" y="363" text-anchor="middle" class="sm">Vector DB ·</text>
<text x="758.0" y="376" text-anchor="middle" class="xs">all-MiniLM-L6-v2 · Serverless</text>
<rect x="842.0" y="329" width="148" height="54" rx="7" fill="none" stroke="#f87171" stroke-width="1.2" filter="url(#shadow)"/>
<rect x="842.0" y="329" width="148" height="54" rx="7" fill="#111111" opacity="0.9"/>
<text x="916.0" y="347" text-anchor="middle" class="nm" fill="#f87171">Deep Researcher</text>
<text x="916.0" y="363" text-anchor="middle" class="sm">Autonomous Agent · Web</text>
<text x="916.0" y="376" text-anchor="middle" class="xs">Crawl + Synthesize</text>
<rect x="40" y="415" width="1120" height="75" rx="10" fill="none" stroke="#fbbf24" stroke-width="0.5" stroke-dasharray="6,4" opacity="0.25"/>
<text x="56" y="431" class="sub" fill="#fbbf24">INFRASTRUCTURE</text>
<rect x="210.0" y="439" width="148" height="54" rx="7" fill="none" stroke="#fbbf24" stroke-width="1.2" filter="url(#shadow)"/>
<rect x="210.0" y="439" width="148" height="54" rx="7" fill="#111111" opacity="0.9"/>
<text x="284.0" y="457" text-anchor="middle" class="nm" fill="#fbbf24">Docker Compose</text>
<text x="284.0" y="473" text-anchor="middle" class="sm">Container Orchestration ·</text>
<text x="284.0" y="486" text-anchor="middle" class="xs">One-Click Deploy</text>
<rect x="368.0" y="439" width="148" height="54" rx="7" fill="none" stroke="#fbbf24" stroke-width="1.2" filter="url(#shadow)"/>
<rect x="368.0" y="439" width="148" height="54" rx="7" fill="#111111" opacity="0.9"/>
<text x="442.0" y="457" text-anchor="middle" class="nm" fill="#fbbf24">PostgreSQL</text>
<text x="442.0" y="473" text-anchor="middle" class="sm">Relational DB · Users ·</text>
<text x="442.0" y="486" text-anchor="middle" class="xs">Projects · Cookies</text>
<rect x="526.0" y="439" width="148" height="54" rx="7" fill="none" stroke="#fbbf24" stroke-width="1.2" filter="url(#shadow)"/>
<rect x="526.0" y="439" width="148" height="54" rx="7" fill="#111111" opacity="0.9"/>
<text x="600.0" y="457" text-anchor="middle" class="nm" fill="#fbbf24">Redis</text>
<text x="600.0" y="473" text-anchor="middle" class="sm">Message Broker · Cache ·</text>
<text x="600.0" y="486" text-anchor="middle" class="xs">SSE pub/sub</text>
<rect x="684.0" y="439" width="148" height="54" rx="7" fill="none" stroke="#fbbf24" stroke-width="1.2" filter="url(#shadow)"/>
<rect x="684.0" y="439" width="148" height="54" rx="7" fill="#111111" opacity="0.9"/>
<text x="758.0" y="457" text-anchor="middle" class="nm" fill="#fbbf24">Nginx</text>
<text x="758.0" y="473" text-anchor="middle" class="sm">Reverse Proxy · Static</text>
<text x="758.0" y="486" text-anchor="middle" class="xs">Files · SSL</text>
<rect x="842.0" y="439" width="148" height="54" rx="7" fill="none" stroke="#fbbf24" stroke-width="1.2" filter="url(#shadow)"/>
<rect x="842.0" y="439" width="148" height="54" rx="7" fill="#111111" opacity="0.9"/>
<text x="916.0" y="457" text-anchor="middle" class="nm" fill="#fbbf24">GitHub Actions</text>
<text x="916.0" y="473" text-anchor="middle" class="sm">CI/CD · Tauri Build · macOS</text>
<text x="916.0" y="486" text-anchor="middle" class="xs">+ Windows</text>
<rect x="40" y="515" width="1120" height="70" rx="10" fill="none" stroke="#94a3b8" stroke-width="0.5" stroke-dasharray="6,4" opacity="0.25"/>
<text x="56" y="531" class="sub" fill="#94a3b8">EXTERNAL APIs</text>
<rect x="210.0" y="539" width="148" height="54" rx="7" fill="none" stroke="#94a3b8" stroke-width="1.2" filter="url(#shadow)"/>
<rect x="210.0" y="539" width="148" height="54" rx="7" fill="#111111" opacity="0.9"/>
<text x="284.0" y="557" text-anchor="middle" class="nm" fill="#94a3b8">Jina Reader</text>
<text x="284.0" y="573" text-anchor="middle" class="sm">Cloud JS Render · Cookie</text>
<text x="284.0" y="586" text-anchor="middle" class="xs">Injection · 500 RPM</text>
<rect x="368.0" y="539" width="148" height="54" rx="7" fill="none" stroke="#94a3b8" stroke-width="1.2" filter="url(#shadow)"/>
<rect x="368.0" y="539" width="148" height="54" rx="7" fill="#111111" opacity="0.9"/>
<text x="442.0" y="557" text-anchor="middle" class="nm" fill="#94a3b8">Tavily Search + Extract</text>
<text x="442.0" y="573" text-anchor="middle" class="sm">Web Search + Content</text>
<text x="442.0" y="586" text-anchor="middle" class="xs">Extract · Paid</text>
<rect x="526.0" y="539" width="148" height="54" rx="7" fill="none" stroke="#94a3b8" stroke-width="1.2" filter="url(#shadow)"/>
<rect x="526.0" y="539" width="148" height="54" rx="7" fill="#111111" opacity="0.9"/>
<text x="600.0" y="557" text-anchor="middle" class="nm" fill="#94a3b8">yt-dlp</text>
<text x="600.0" y="573" text-anchor="middle" class="sm">Video Platform Download ·</text>
<text x="600.0" y="586" text-anchor="middle" class="xs">YouTube + Bilibili</text>
<rect x="684.0" y="539" width="148" height="54" rx="7" fill="none" stroke="#94a3b8" stroke-width="1.2" filter="url(#shadow)"/>
<rect x="684.0" y="539" width="148" height="54" rx="7" fill="#111111" opacity="0.9"/>
<text x="758.0" y="557" text-anchor="middle" class="nm" fill="#94a3b8">trafilatura</text>
<text x="758.0" y="573" text-anchor="middle" class="sm">Static HTML Extraction ·</text>
<text x="758.0" y="586" text-anchor="middle" class="xs">Level 1 Fallback</text>
<rect x="842.0" y="539" width="148" height="54" rx="7" fill="none" stroke="#94a3b8" stroke-width="1.2" filter="url(#shadow)"/>
<rect x="842.0" y="539" width="148" height="54" rx="7" fill="#111111" opacity="0.9"/>
<text x="916.0" y="557" text-anchor="middle" class="nm" fill="#94a3b8">Ollama</text>
<text x="916.0" y="573" text-anchor="middle" class="sm">Local LLM · Privacy Mode ·</text>
<text x="916.0" y="586" text-anchor="middle" class="xs">No Data Leak</text>
<rect x="450" y="590" width="300" height="22" rx="10" fill="none" stroke="#d4a574" stroke-width="0.5" opacity="0.3"/>
<text x="600" y="605" text-anchor="middle" class="xs" fill="#c9a96e">KnowledgeOS v0.5.6 · Enterprise Knowledge Operating System</text>
</svg>